HIERARCHY
ROOT Model_Hips
{
	OFFSET 0.000000 96.915077 0.000000
	CHANNELS 6 Xposition Yposition Zposition Xrotation Yrotation Zrotation
	JOINT Model_Spine
	{
		OFFSET 0.000000 11.137703 -1.289900
		CHANNELS 3 Xrotation Yrotation Zrotation
		JOINT Model_Spine1
		{
			OFFSET 0.000000 12.993942 -1.504922
			CHANNELS 3 Xrotation Yrotation Zrotation
			JOINT Model_Spine2
			{
				OFFSET 0.000000 14.850220 -1.719911
				CHANNELS 3 Xrotation Yrotation Zrotation
				JOINT Model_Neck
				{
					OFFSET 0.000000 16.706543 -1.934903
					CHANNELS 3 Xrotation Yrotation Zrotation
					JOINT Model_Head
					{
						OFFSET 0.000000 10.471298 2.002100
						CHANNELS 3 Xrotation Yrotation Zrotation
						JOINT Model_HeadTop_End
						{
							OFFSET 0.000000 20.842606 3.985100
							CHANNELS 3 Xrotation Yrotation Zrotation
							End Site
							{
								OFFSET 0.000000 21.220154 0.000000
							}
						}
					}
				}
				JOINT Model_LeftShoulder
				{
					OFFSET 7.008500 14.768600 -1.919946
					CHANNELS 3 Xrotation Yrotation Zrotation
					JOINT Model_LeftArm
					{
						OFFSET 14.126271 -3.718048 0.029937
						CHANNELS 3 Xrotation Yrotation Zrotation
						JOINT Model_LeftForeArm
						{
							OFFSET 28.282801 0.000000 0.000000
							CHANNELS 3 Xrotation Yrotation Zrotation
							JOINT Model_LeftHand
							{
								OFFSET 26.204689 0.000000 0.000000
								CHANNELS 3 Xrotation Yrotation Zrotation
								End Site
								{
									OFFSET 26.204704 0.000000 0.000000
								}
							}
						}
					}
				}
				JOINT Model_RightShoulder
				{
					OFFSET -7.008500 14.768555 -1.949840
					CHANNELS 3 Xrotation Yrotation Zrotation
					JOINT Model_RightArm
					{
						OFFSET -14.126281 -3.718018 -0.029932
						CHANNELS 3 Xrotation Yrotation Zrotation
						JOINT Model_RightForeArm
						{
							OFFSET -28.283798 0.000000 -0.000001
							CHANNELS 3 Xrotation Yrotation Zrotation
							JOINT Model_RightHand
							{
								OFFSET -26.204193 0.000000 -0.000001
								CHANNELS 3 Xrotation Yrotation Zrotation
								End Site
								{
									OFFSET -26.204208 0.000000 -0.000001
								}
							}
						}
					}
				}
			}
		}
	}
	JOINT Model_LeftUpLeg
	{
		OFFSET 8.327700 -6.193199 -0.402800
		CHANNELS 3 Xrotation Yrotation Zrotation
		JOINT Model_LeftLeg
		{
			OFFSET 0.735802 -42.108742 -0.610721
			CHANNELS 3 Xrotation Yrotation Zrotation
			JOINT Model_LeftFoot
			{
				OFFSET -0.735806 -36.833748 -0.172876
				CHANNELS 3 Xrotation Yrotation Zrotation
				JOINT Model_LeftToeBase
				{
					OFFSET -0.565857 -11.977769 16.297714
					CHANNELS 3 Xrotation Yrotation Zrotation
					JOINT Model_LeftToe_End
					{
						OFFSET -0.111712 -0.312793 7.857784
						CHANNELS 3 Xrotation Yrotation Zrotation
						End Site
						{
							OFFSET -0.111712 -0.312793 7.857784
						}
					}
				}
			}
		}
	}
	JOINT Model_RightUpLeg
	{
		OFFSET -8.327700 -6.193199 -0.516500
		CHANNELS 3 Xrotation Yrotation Zrotation
		JOINT Model_RightLeg
		{
			OFFSET -0.735785 -42.108738 -0.434061
			CHANNELS 3 Xrotation Yrotation Zrotation
			JOINT Model_RightFoot
			{
				OFFSET 0.735776 -36.833748 -0.021630
				CHANNELS 3 Xrotation Yrotation Zrotation
				JOINT Model_RightToeBase
				{
					OFFSET 0.565817 -11.977745 15.903093
					CHANNELS 3 Xrotation Yrotation Zrotation
					JOINT Model_RightToe_End
					{
						OFFSET 0.111702 -0.312791 7.811342
						CHANNELS 3 Xrotation Yrotation Zrotation
						End Site
						{
							OFFSET 0.111702 -0.312791 7.811342
						}
					}
				}
			}
		}
	}
}
MOTION
Frames: 9
Frame Time: 0.016667
9.938799 94.642937 -41.780205 -4.527427 -19.217320 -1.549182 15.203144 2.747936 0.225871 14.443203 0.653314 -0.716303 14.439148 0.671149 -0.755789 4.245093 3.497732 -2.625057 4.377029 3.494119 -2.440443 0.000002 -0.000000 0.000001 0.127322 -7.304973 -23.139438 -30.896610 -27.323943 -55.515972 -0.000012 -11.323175 -0.000033 -0.000003 -0.000001 0.000000 -0.622385 15.476922 21.113769 -27.571561 17.441655 54.140358 0.000012 5.760938 -0.000012 -0.000001 0.000000 -0.000000 -27.730980 2.649649 2.541021 59.368872 -4.545187 0.803645 -6.727668 1.299350 -9.499721 -4.024709 -0.630518 6.072528 -0.000001 0.000001 -0.000000 -17.018282 -5.811766 1.962885 33.105360 -0.264694 -1.202405 -18.135619 -0.837641 -2.749767 0.276837 -0.000008 0.000000 0.000001 0.000000 0.000000 
10.444317 94.754944 -42.652054 -4.351487 -19.217627 -1.454411 15.151197 2.462380 0.251916 14.418587 0.573824 -0.713779 14.414578 0.593336 -0.750922 4.201137 3.518817 -2.631315 4.333747 3.514902 -2.447981 0.000003 0.000000 -0.000000 0.115775 -7.400968 -23.144354 -31.447704 -28.046189 -56.167507 -0.000015 -11.975640 -0.000010 -0.000001 0.000001 -0.000000 -0.577992 15.272508 20.893450 -25.795635 16.228900 53.163590 0.000007 5.819112 0.000018 -0.000000 -0.000000 0.000001 -26.250222 2.571547 2.401101 60.036174 -6.232581 0.991914 -7.185844 1.363355 -9.558308 -5.679947 -0.976963 7.546043 -0.000001 -0.000000 0.000000 -17.587974 -5.864047 1.794121 32.575358 0.016965 -1.206044 -17.939321 -0.925174 -2.754220 0.292824 -0.000008 -0.000001 0.000001 -0.000002 -0.000000 
10.973614 94.819176 -43.510391 -4.226634 -19.131724 -1.436346 15.126653 2.148378 0.387023 14.402649 0.486004 -0.691763 14.398910 0.507629 -0.726395 4.159650 3.541233 -2.653737 4.293234 3.536754 -2.471669 -0.000003 0.000000 -0.000000 0.103424 -7.495898 -23.170095 -31.989621 -28.908513 -56.825644 -0.000022 -12.574394 0.000019 -0.000003 0.000002 -0.000001 -0.537572 15.069562 20.700720 -24.038038 15.025895 52.113507 0.000001 5.993628 0.000018 -0.000000 0.000000 -0.000000 -24.587281 2.495639 2.267479 60.360964 -8.051258 1.208442 -7.704217 1.433583 -9.603183 -7.214439 -1.444882 9.160992 0.000000 -0.000001 0.000000 -18.133985 -5.951737 1.625686 32.090039 0.256228 -1.154786 -17.617160 -1.010582 -2.747641 0.281569 -0.000003 -0.000004 0.000001 0.000002 0.000000 
11.526739 94.831566 -44.358944 -4.120309 -19.037084 -1.476502 15.103293 1.862940 0.592843 14.389732 0.405842 -0.656068 14.386436 0.429501 -0.688338 4.122980 3.563802 -2.686031 4.257815 3.558648 -2.505075 -0.000000 -0.000000 0.000000 0.090906 -7.587277 -23.208486 -32.555540 -29.840304 -57.503506 0.000001 -13.117209 0.000026 0.000001 0.000001 -0.000001 -0.499845 14.871024 20.522946 -22.265057 13.832824 51.021175 -0.000011 6.305853 -0.000015 -0.000000 0.000000 0.000001 -22.794769 2.453722 2.168850 60.327359 -9.883291 1.443440 -8.317179 1.522176 -9.700301 -8.484049 -2.017596 10.993190 -0.000001 0.000002 -0.000001 -18.702289 -6.007142 1.501741 31.628390 0.412166 -1.114404 -17.074554 -1.100291 -2.689685 0.259240 -0.000006 -0.000000 -0.000000 0.000003 0.000001 
12.097545 94.788467 -45.206062 -3.998173 -18.998661 -1.542764 15.059578 1.643099 0.810726 14.375542 0.343953 -0.617148 14.372646 0.369267 -0.647497 4.087016 3.581047 -2.704422 4.223186 3.575407 -2.524243 -0.000003 -0.000000 0.000000 0.077578 -7.688287 -23.237601 -33.168119 -30.760556 -58.202672 -0.000018 -13.611040 -0.000003 -0.000004 0.000003 -0.000002 -0.469300 14.692128 20.390369 -20.427171 12.748456 49.908831 0.000004 6.808128 -0.000016 0.000000 -0.000000 0.000001 -20.907598 2.455785 2.086189 59.894878 -10.295917 1.708296 -8.898434 0.449254 -10.093214 -8.997128 -2.570357 13.844244 0.000001 0.000001 -0.000001 -19.348234 -5.970895 1.454159 31.199481 0.476616 -1.140731 -16.282913 -1.197059 -2.558637 0.284262 -0.000001 0.000004 0.000001 0.000002 0.000000 
12.679293 94.680321 -46.061661 -3.860458 -19.027445 -1.619441 15.008653 1.462221 1.006725 14.360423 0.293232 -0.580046 14.357857 0.319864 -0.608756 4.045567 3.592280 -2.693869 4.182497 3.586534 -2.514370 0.000004 -0.000000 0.000001 0.064170 -7.799070 -23.244175 -33.826604 -31.605871 -58.896530 -0.000003 -14.054790 -0.000003 0.000003 0.000001 -0.000000 -0.451996 14.569212 20.333236 -18.497382 11.883295 48.796015 0.000002 7.523683 0.000023 -0.000001 -0.000000 0.000001 -18.907205 2.515298 1.933040 59.097413 -10.273390 2.024737 -9.515606 -0.569237 -10.006947 -11.600560 -3.301538 14.526134 -0.000003 -0.000001 0.000000 -20.115235 -5.840993 1.476587 30.899134 0.466307 -1.240330 -15.356968 -1.297831 -2.364500 0.359601 0.000005 0.000001 0.000001 0.000000 0.000000 
13.269579 94.515175 -46.930679 -3.740962 -19.102854 -1.703719 14.989695 1.261960 1.175999 14.348959 0.238467 -0.540243 14.346763 0.266203 -0.567123 3.997351 3.603322 -2.664632 4.134799 3.597712 -2.486061 0.000001 0.000001 -0.000001 0.052617 -7.899191 -23.236660 -34.512246 -32.344460 -59.556477 0.000008 -14.460112 0.000026 -0.000002 0.000001 0.000000 -0.448502 14.538088 20.328140 -16.520119 11.237871 47.714045 0.000005 8.377555 0.000021 -0.000000 0.000000 0.000001 -16.616262 2.738396 1.470098 58.210690 -10.142594 2.406809 -11.462747 -1.098547 -7.396191 -12.956456 -3.298951 12.544473 -0.000000 0.000001 -0.000001 -20.971578 -5.666081 1.522642 30.762578 0.427700 -1.372348 -14.429482 -1.396704 -2.143091 0.419606 -0.000030 0.000000 0.000000 0.000003 0.000001 
13.872094 94.318588 -47.809471 -3.673036 -19.212366 -1.804960 15.026420 1.024533 1.335665 14.346239 0.175496 -0.490260 14.344408 0.204101 -0.514918 3.949257 3.618843 -2.641137 4.086883 3.613355 -2.463850 0.000001 -0.000000 0.000001 0.043150 -7.981236 -23.230320 -35.205080 -32.983762 -60.183877 -0.000019 -14.857856 0.000038 -0.000003 0.000000 0.000001 -0.450908 14.589749 20.307985 -14.610019 10.705909 46.704632 0.000011 9.186893 0.000014 0.000000 0.000000 -0.000000 -14.080530 3.009531 0.941794 56.744587 -9.955171 2.823273 -13.381078 -1.315820 -4.276591 -14.744457 -3.318486 9.841760 -0.000001 0.000003 -0.000001 -21.824772 -5.498362 1.552749 30.694494 0.416806 -1.489362 -13.517995 -1.489772 -1.928007 0.402921 0.000014 0.000000 0.000001 0.000002 0.000000 
14.491911 94.118690 -48.690189 -3.657843 -19.356941 -1.938098 15.100348 0.782890 1.505309 14.354167 0.112974 -0.428030 14.352717 0.142189 -0.450286 3.911837 3.637782 -2.637389 4.049400 3.632332 -2.461377 0.000004 0.000000 0.000000 0.033082 -8.066364 -23.229349 -35.891350 -33.552867 -60.795008 -0.000004 -15.261682 0.000001 -0.000003 0.000000 0.000001 -0.448835 14.666504 20.223869 -12.903152 10.189454 45.803874 0.000007 9.720684 0.000001 -0.000000 -0.000001 -0.000001 -11.361390 3.326427 0.459567 54.622911 -9.717770 3.231756 -15.448735 -1.465737 -1.382294 -16.084115 -2.838623 7.204379 0.000001 0.000001 0.000000 -22.583763 -5.362662 1.563301 30.516957 0.464347 -1.564009 -12.514273 -1.574696 -1.733228 0.305026 -0.000004 0.000002 0.000001 -0.000002 0.000000 
